<svg width="605" height="135" viewBox="0 0 605 135" fill="none" xmlns="http://www.w3.org/2000/svg">
<path d="M168.591 79.8861C171.207 65.4991 172.768 55.6009 174.099 44.2952C181.173 44.426 188.292 44.9449 195.384 44.9449C207.168 44.9449 217.315 44.6832 220.635 44.2952C220.116 45.8381 219.593 47.3856 219.173 49.6909C218.682 52.3888 218.709 53.5437 218.605 55.4746C209.586 54.8295 195.317 53.9272 191.712 53.9272C189.407 63.3065 187.719 72.5595 186.01 81.9389C196.517 81.6772 204.263 81.4291 213.493 80.9102C212.474 83.8652 212.144 85.0202 211.842 86.6894C211.581 88.1015 211.617 89.2564 211.486 91.9588C202.479 91.1862 193.443 90.8009 184.403 90.8039C183.42 96.1951 182.297 101.722 181.291 107.248C180.314 112.583 179.461 117.939 178.733 123.313C187.751 123.313 197.099 122.799 206.573 121.64C206.004 123.435 205.531 124.726 205.043 127.419C204.552 130.121 204.556 131.407 204.516 132.95C200.212 132.819 194.649 132.3 183.591 132.3C163.989 132.3 160.678 132.688 157.984 132.95C160.759 121.64 162.798 111.751 165.419 97.3545L168.591 79.8861ZM230.272 79.8861C232.888 65.4991 234.445 55.6009 235.78 44.2952C238.379 44.5569 241.559 44.9449 245.525 44.9449C249.49 44.9449 252.806 44.5569 255.5 44.2952C252.73 55.6009 250.686 65.4946 248.069 79.8861L244.893 97.359C242.272 111.751 240.711 121.644 239.376 132.954C236.782 132.693 233.605 132.305 229.64 132.305C225.67 132.305 222.354 132.693 219.661 132.954C222.435 121.644 224.474 111.755 227.091 97.359L230.272 79.8861ZM268.745 79.8861C271.362 65.4991 272.923 55.6009 274.254 44.2952C281.328 44.426 288.447 44.9449 295.539 44.9449C307.323 44.9449 317.469 44.6832 320.789 44.2952C320.271 45.8381 319.747 47.3856 319.328 49.6909C318.836 52.3888 318.863 53.5437 318.755 55.4746C309.736 54.8295 295.471 53.9272 291.867 53.9272C289.552 63.3065 287.874 72.5595 286.164 81.9389C296.671 81.6772 304.413 81.4291 313.643 80.9102C312.628 83.8652 312.294 85.0202 311.997 86.6894C311.735 88.1015 311.767 89.2564 311.636 91.9588C302.631 91.1861 293.596 90.8008 284.558 90.8039L283.358 97.35C280.75 111.742 279.185 121.635 277.849 132.945C275.251 132.684 272.075 132.296 268.105 132.296C264.139 132.296 260.828 132.684 258.13 132.945C260.909 121.635 262.948 111.746 265.565 97.35L268.745 79.8861ZM328.865 79.8861C331.473 65.4991 333.038 55.6009 334.374 44.2952C341.438 44.426 348.562 44.9449 355.659 44.9449C367.438 44.9449 377.589 44.6832 380.905 44.2952C380.381 45.8381 379.867 47.3856 379.438 49.6909C378.956 52.3888 378.978 53.5437 378.875 55.4746C369.852 54.8295 355.586 53.9272 351.982 53.9272C349.672 63.3065 347.989 72.5595 346.284 81.9389C356.786 81.6772 364.528 81.4291 373.763 80.9102C372.743 83.8652 372.414 85.0202 372.107 86.6894C371.85 88.1015 371.882 89.2564 371.755 91.9588C362.747 91.1859 353.71 90.8006 344.669 90.8039L343.478 97.35C340.861 111.742 339.3 121.635 337.969 132.945C335.366 132.684 332.19 132.296 328.224 132.296C324.254 132.296 320.938 132.684 318.25 132.945C321.024 121.635 323.068 111.746 325.675 97.35L328.865 79.8861ZM396.077 99.0283C401.413 88.682 407.036 78.4866 412.941 68.4541C414.962 78.4786 416.487 88.6248 418.084 99.0283H396.077ZM426.583 43.6591C424.982 43.9163 423.466 44.2997 421.905 44.2997C420.339 44.2997 418.968 43.9163 417.452 43.6591C401.779 72.952 375.432 118.694 366.946 132.954C369.279 132.693 371.155 132.305 373.073 132.305C374.99 132.305 376.732 132.693 378.604 132.954C382.524 123.981 386.852 115.191 391.574 106.612C395.806 106.486 399.916 106.35 404.125 106.35C409.295 106.35 414.317 106.481 419.464 106.612C420.881 115.351 422.031 124.211 422.97 132.954C426.38 132.693 429.935 132.305 433.305 132.305C436.671 132.305 439.969 132.693 443.767 132.954C438.439 112.008 431.478 72.952 426.583 43.6591ZM531.439 63.4419C527.798 55.7363 521.035 50.5932 510.099 50.5932C495.185 50.5932 477.391 63.8298 472.478 90.8129C468.77 111.236 476.665 126.652 495.18 126.652C499.263 126.652 506.526 125.754 508.705 124.342C509.441 122.285 510.023 119.073 510.699 115.346C513.226 101.469 513.555 95.6943 513.876 93.2536C515.391 93.5108 517.728 93.8942 522.655 93.8942C528.425 93.8942 530.902 93.5108 532.512 93.2536C531.421 95.9515 529.12 106.612 527.626 114.832C526.643 120.228 525.524 127.035 525.416 128.966C514.372 132.183 502.868 134.624 492.284 134.624C464.633 134.624 447.855 117.791 452.623 91.5798C458.551 58.9484 483.049 42.626 511.3 42.626C523.444 42.626 531.109 45.4502 538.874 50.3361C536.753 54.7077 534.642 59.0748 533.126 63.4373H531.439M552.255 79.8861C554.876 65.4991 556.432 55.6009 557.772 44.2952C564.837 44.426 571.965 44.9449 579.053 44.9449C590.837 44.9449 600.983 44.6832 604.303 44.2952C603.785 45.8381 603.261 47.3856 602.842 49.6909C602.35 52.3888 602.377 53.5437 602.269 55.4746C593.25 54.8295 578.985 53.9272 575.38 53.9272C573.07 63.3065 571.388 72.5595 569.678 81.9389C580.19 81.6772 587.931 81.4291 597.162 80.9102C596.138 83.8652 595.813 85.0202 595.51 86.6894C595.253 88.1015 595.285 89.2564 595.154 91.9588C586.147 91.186 577.112 90.8007 568.072 90.8039C567.088 96.1951 565.965 101.722 564.959 107.248C563.984 112.583 563.132 117.939 562.405 123.313C571.419 123.313 580.767 122.799 590.241 121.64C589.673 123.435 589.199 124.726 588.707 127.419C588.22 130.121 588.22 131.407 588.184 132.95C583.875 132.819 578.317 132.3 567.26 132.3C547.657 132.3 544.346 132.688 541.648 132.95C544.427 121.64 546.466 111.751 549.088 97.3545L552.255 79.8861Z" fill="white"/>
<path d="M141.923 0.976562H43.136L19.8975 24.2151H118.676V117.192L141.923 93.9443V0.976562Z" fill="white"/>
<path d="M0.141846 41.6523H101.248V64.8954H0.141846V41.6523ZM0.141846 76.5169H101.248V99.7555H0.141846V76.5169ZM0.141846 111.381H101.248V134.625H0.141846V111.381Z" fill="white"/>
</svg>
